<?xml version="1.0" encoding="utf-8" ?>	<!-- Generator: Assembly 2.2 - http://assemblyapp.co -->	<svg version="1.1" xmlns="http://www.w3.org/2000/svg" xmlns:xlink="http://www.w3.org/1999/xlink" width="2048.00" height="1152.00" viewBox="0 0 2048.0 1151.9999914169312">		<g id="document" transform="matrix(1,0,0,1,1024.0,575.9999957084656)">			<path d="M-800.529,-123.619 C-804.305,-116.82 -807.403,-111.381 -811.33,-104.583 C-812.917,-101.864 -814.881,-98.4644 -815.636,-97.0292 C-816.467,-95.594 -822.208,-85.5475 -828.326,-74.7456 C-834.521,-63.9437 -840.337,-53.595 -841.395,-51.7065 C-842.452,-49.8181 -844.794,-45.8146 -846.607,-42.7931 C-848.42,-39.6961 -849.855,-37.1278 -849.855,-36.9767 C-849.855,-36.8256 -851.894,-33.2753 -854.387,-29.0452 C-856.88,-24.8151 -858.919,-21.2648 -858.919,-21.1138 C-858.919,-20.9627 -862.016,-15.5239 -865.869,-8.87664 C-874.027,5.24895 -877.048,11.9718 -879.843,22.0183 C-881.732,28.8167 -881.883,30.6296 -881.883,42.7157 C-881.883,56.6902 -881.278,60.467 -877.35,71.5711 C-863.603,110.549 -822.661,134.796 -781.266,128.527 C-773.713,127.318 -772.051,126.865 -762.231,123.39 C-739.645,115.232 -718.495,93.6281 -711.016,71.0423 C-707.088,59.4095 -706.786,57.2189 -706.786,42.7157 C-706.786,28.2124 -707.164,25.4931 -711.243,13.5581 C-712.754,9.02584 -717.815,-1.09626 -720.761,-5.47746 C-721.969,-7.29035 -722.951,-8.87664 -722.951,-9.10324 C-722.951,-9.32985 -724.386,-11.7471 -726.199,-14.542 C-728.012,-17.3369 -734.357,-27.61 -740.249,-37.3544 C-746.217,-47.0987 -756.943,-64.7746 -764.195,-76.634 C-771.447,-88.4935 -781.644,-105.187 -786.856,-113.874 C-792.144,-122.485 -796.601,-129.51 -796.903,-129.51 C-797.129,-129.51 -798.791,-126.867 -800.529,-123.619 Z " fill="#271789" fill-opacity="1.00" stroke-width="0.33" stroke="#ffffff" stroke-linecap="square" stroke-linejoin="miter" />			<path d="M-591.314,129.688 L-524.356,129.688 L-524.356,-127.571 L-591.314,-127.571 L-591.314,129.688 Z M-395.492,134.27 C-357.432,134.27 -331.001,118.764 -312.676,95.5046 L-349.679,64.8449 C-363.423,78.2365 -376.109,84.2275 -391.968,84.2275 C-412.76,84.2275 -427.914,73.6552 -433.2,52.863 L-305.628,52.863 C-305.275,48.2817 -305.275,43.348 -305.275,39.1191 C-305.275,-16.914 -335.582,-65.1941 -401.483,-65.1941 C-457.868,-65.1941 -497.691,-21.143 -497.691,34.5377 L-497.691,35.2426 C-497.691,94.4473 -455.402,134.27 -395.492,134.27 Z M-434.257,18.6793 C-430.733,-2.11285 -418.751,-15.8568 -401.131,-15.8568 C-382.805,-15.8568 -370.471,-2.46526 -368.004,18.6793 L-434.257,18.6793 Z M-225.043,133.917 C-200.022,133.917 -182.049,124.402 -169.01,109.953 L-169.01,129.688 L-102.757,129.688 L-102.757,20.0889 C-102.757,-6.69417 -108.748,-26.4291 -123.197,-40.5255 C-138.351,-55.6791 -161.61,-63.7845 -195.793,-63.7845 C-228.567,-63.7845 -251.474,-57.7935 -272.971,-48.9833 L-259.227,-1.76044 C-242.311,-8.45622 -226.805,-12.3327 -206.718,-12.3327 C-180.992,-12.3327 -168.658,-1.05562 -168.658,18.6793 L-168.658,21.851 C-179.582,17.9745 -196.851,14.4504 -214.471,14.4504 C-259.227,14.4504 -289.182,34.8901 -289.182,74.36 L-289.182,75.0648 C-289.182,113.125 -261.341,133.917 -225.043,133.917 Z M-201.079,91.9805 C-214.823,91.9805 -224.691,84.2275 -224.691,71.1883 L-224.691,70.4835 C-224.691,56.3871 -213.414,46.8721 -194.031,46.8721 C-184.164,46.8721 -174.649,48.9865 -167.953,51.8058 L-167.953,60.616 C-167.953,79.6461 -181.697,91.9805 -201.079,91.9805 Z M-71.5102,129.688 L-4.55245,129.688 L-4.55245,70.4835 C-4.55245,26.4323 15.1825,6.34498 50.071,6.34498 L55.7096,6.34498 L55.7096,-64.1369 C23.9927,-65.5465 6.37225,-48.6309 -4.55245,-22.5526 L-4.55245,-60.9652 L-71.5102,-60.9652 L-71.5102,129.688 Z M76.3843,129.688 L143.342,129.688 L143.342,26.4323 C143.342,5.64016 155.324,-5.63694 171.535,-5.63694 C187.393,-5.63694 198.318,5.64016 198.318,26.4323 L198.318,129.688 L265.276,129.688 L265.276,4.93534 C265.276,-38.411 240.959,-65.1941 200.432,-65.1941 C173.297,-65.1941 155.676,-50.0405 143.342,-34.1821 L143.342,-60.9652 L76.3843,-60.9652 L76.3843,129.688 Z M467.324,133.565 C486.001,133.565 501.86,129.336 513.842,122.64 L513.842,70.1311 C505.736,74.0076 497.279,76.4745 488.468,76.4745 C476.134,76.4745 470.143,70.8359 470.143,57.4443 L470.143,-7.04658 L514.547,-7.04658 L514.547,-60.9652 L470.143,-60.9652 L470.143,-109.245 L403.185,-109.245 L403.185,-60.9652 L380.631,-60.9652 L380.631,-7.04658 L403.185,-7.04658 L403.185,70.4835 C403.185,115.944 427.149,133.565 467.324,133.565 Z M579.977,129.688 L647.288,129.688 L647.288,-118.76 L597.598,-118.76 L525.354,-98.3206 L538.393,-45.4592 L579.977,-54.9743 L579.977,129.688 Z M763.465,133.917 C792.01,133.917 808.574,120.173 821.613,104.315 L821.613,129.688 L888.571,129.688 L888.571,-127.571 L821.613,-127.571 L821.613,-37.7062 C808.926,-52.155 792.01,-65.1941 763.113,-65.1941 C718.004,-65.1941 679.239,-27.4863 679.239,34.5377 L679.239,35.2426 C679.239,96.2094 718.357,133.917 763.465,133.917 Z M783.905,77.8841 C762.408,77.8841 744.787,59.9112 744.787,34.5377 L744.787,33.8329 C744.787,8.45944 762.408,-9.16104 783.905,-9.16104 C805.402,-9.16104 822.67,8.81185 822.67,33.8329 L822.67,34.5377 C822.67,59.9112 805.402,77.8841 783.905,77.8841 Z " fill="#271789" fill-opacity="1.00" />		</g>	</svg>