<?xml version="1.0" standalone="no"?>
<!DOCTYPE svg PUBLIC "-//W3C//DTD SVG 20010904//EN"
 "http://www.w3.org/TR/2001/REC-SVG-20010904/DTD/svg10.dtd">
<svg version="1.0" xmlns="http://www.w3.org/2000/svg"
 width="500.000000pt" height="500.000000pt" viewBox="0 0 500.000000 500.000000"
 preserveAspectRatio="xMidYMid meet">
<g transform="translate(0.000000,500.000000) scale(0.100000,-0.100000)"
fill="#271789" stroke="none">
<path d="M2410 4161 c0 -4 -211 -378 -469 -830 -260 -454 -483 -856 -499 -899
-53 -138 -67 -220 -66 -392 1 -177 24 -286 87 -423 75 -163 214 -333 352 -432
90 -65 256 -142 370 -171 87 -23 121 -27 260 -28 137 0 174 3 254 23 431 108
735 413 822 826 24 114 26 310 4 416 -21 106 -58 209 -103 293 -33 60 -895
1475 -968 1589 -23 34 -44 48 -44 28z"/>
</g>
</svg>
