<?xml version="1.0" encoding="utf-8" ?>	<!-- Generator: Assembly 2.2 - http://assemblyapp.co -->	<svg version="1.1" xmlns="http://www.w3.org/2000/svg" xmlns:xlink="http://www.w3.org/1999/xlink" width="2048" height="1152" viewBox="0 30 2048 1152">		<g id="document" transform="matrix(1,0,0,1,1024.0,1024.0)">			<path d="M-775.362,-109.231 C-778.699,-103.224 -781.436,-98.4181 -784.907,-92.4109 C-786.308,-90.0081 -788.044,-87.0045 -788.711,-85.7363 C-789.446,-84.4682 -794.518,-75.5909 -799.925,-66.0462 C-805.398,-56.5015 -810.537,-47.3572 -811.472,-45.6886 C-812.406,-44.0199 -814.475,-40.4824 -816.077,-37.8125 C-817.679,-35.076 -818.947,-32.8066 -818.947,-32.6731 C-818.947,-32.5396 -820.749,-29.4025 -822.952,-25.6647 C-825.155,-21.927 -826.957,-18.7899 -826.957,-18.6564 C-826.957,-18.5229 -829.693,-13.7172 -833.098,-7.84352 C-840.306,4.63804 -842.976,10.5784 -845.446,19.4557 C-847.114,25.4628 -847.248,27.0648 -847.248,37.7441 C-847.248,50.0922 -846.714,53.4295 -843.243,63.2412 C-831.095,97.6822 -794.919,119.108 -758.342,113.568 C-751.667,112.5 -750.199,112.099 -741.522,109.029 C-721.565,101.82 -702.876,82.7311 -696.268,62.774 C-692.797,52.495 -692.53,50.5594 -692.53,37.7441 C-692.53,24.9289 -692.864,22.526 -696.468,11.9801 C-697.803,7.97535 -702.275,-0.968666 -704.878,-4.83996 C-705.946,-6.44185 -706.814,-7.84352 -706.814,-8.04375 C-706.814,-8.24398 -708.082,-10.3799 -709.684,-12.8495 C-711.286,-15.3191 -716.892,-24.3965 -722.099,-33.0068 C-727.372,-41.6171 -736.85,-57.2357 -743.257,-67.7149 C-749.665,-78.194 -758.676,-92.9449 -763.281,-100.621 C-767.953,-108.23 -771.891,-114.437 -772.158,-114.437 C-772.359,-114.437 -773.827,-112.101 -775.362,-109.231 Z " fill="#271789" fill-opacity="1.00" stroke-width="0.31" stroke="#ffffff" stroke-linecap="square" stroke-linejoin="miter" />			<path d="M-539.233,110.7 L-539.233,-115.06 L-601.2,-115.06 L-601.2,110.7 L-539.233,110.7 Z M-417.27,-57.4521 C-446.126,-57.4521 -468.754,-50.1863 -485.154,-35.6546 C-501.554,-21.1229 -509.754,0.259501 -509.754,28.4925 C-509.754,57.3483 -501.346,78.8864 -484.531,93.1067 C-467.716,107.327 -444.05,114.437 -413.533,114.437 C-384.47,114.437 -362.361,108.832 -347.206,97.6219 C-332.052,86.4117 -324.475,70.8421 -324.475,50.9129 L-384.574,50.9129 C-384.574,58.1787 -387.013,63.9914 -391.891,68.3509 C-396.77,72.7104 -404.399,74.8902 -414.779,74.8902 C-426.197,74.8902 -434.552,71.88 -439.846,65.8598 C-445.14,59.8395 -447.787,50.9129 -447.787,39.0799 L-324.475,39.0799 L-324.475,28.4925 C-324.475,-0.570882 -332.415,-22.1608 -348.296,-36.2774 C-364.177,-50.3939 -387.169,-57.4521 -417.27,-57.4521 Z M-414.779,-17.9051 C-406.06,-17.9051 -399.261,-15.414 -394.383,-10.4317 C-389.504,-5.44938 -387.065,1.29748 -387.065,9.80891 L-447.475,9.80891 C-445.192,-8.66712 -434.293,-17.9051 -414.779,-17.9051 Z M-215.902,-57.4521 C-243.512,-57.4521 -264.739,-52.885 -279.582,-43.7508 C-294.425,-34.6166 -301.847,-22.2646 -301.847,-6.69496 C-301.847,-4.8266 -301.743,-3.37342 -301.535,-2.33545 L-240.502,-2.33545 L-240.502,-3.58102 C-240.502,-8.56332 -238.167,-12.1962 -233.496,-14.4798 C-228.825,-16.7634 -223.272,-17.9051 -216.836,-17.9051 C-209.778,-17.9051 -204.017,-16.2444 -199.554,-12.9228 C-195.091,-9.6013 -192.859,-4.7228 -192.859,1.71267 L-192.859,9.80891 C-219.016,9.80891 -240.191,11.3659 -256.383,14.4798 C-272.576,17.5937 -284.98,23.3545 -293.595,31.7622 C-302.21,40.1698 -306.518,52.366 -306.518,68.3509 C-306.518,99.0751 -287.211,114.437 -248.599,114.437 C-235.52,114.437 -224.102,112.569 -214.345,108.832 C-204.588,105.095 -195.765,100.113 -187.877,93.8852 C-184.97,100.321 -179.625,105.355 -171.84,108.988 C-164.055,112.621 -154.142,114.437 -142.102,114.437 C-135.874,114.437 -130.373,113.97 -125.598,113.036 C-120.823,112.102 -117.138,111.168 -114.544,110.233 C-111.949,109.299 -110.34,108.624 -109.717,108.209 L-109.717,72.399 L-120.927,72.399 C-124.249,72.399 -126.74,71.2573 -128.401,68.9737 C-130.061,66.6902 -130.892,63.7838 -130.892,60.2547 L-130.892,-3.89241 C-130.892,-22.7836 -138.78,-36.4331 -154.558,-44.8407 C-170.335,-53.2483 -190.783,-57.4521 -215.902,-57.4521 Z M-192.859,39.0799 L-192.859,53.0926 C-192.859,59.5281 -195.921,64.9256 -202.045,69.2851 C-208.169,73.6446 -215.279,75.8244 -223.376,75.8244 C-237.492,75.8244 -244.55,70.6345 -244.55,60.2547 C-244.55,53.8192 -240.347,48.6812 -231.939,44.8407 C-223.531,41.0002 -210.505,39.0799 -192.859,39.0799 Z M7.88607,-57.7635 C-2.28612,-57.7635 -11.4203,-55.3243 -19.5166,-50.4458 C-27.6128,-45.5673 -33.5293,-38.3533 -37.266,-28.8039 L-41.3141,-53.7154 L-92.0713,-53.7154 L-92.0713,110.7 L-30.104,110.7 L-30.104,37.5229 C-30.104,24.4444 -27.2495,14.5836 -21.5406,7.94055 C-15.8317,1.29748 -6.54183,-2.02405 6.32911,-2.02405 L26.2583,-2.02405 L26.2583,-54.0268 C26.2583,-54.2344 24.3899,-54.9091 20.6532,-56.0509 C16.9165,-57.1926 12.6608,-57.7635 7.88607,-57.7635 Z M172.51,-57.4521 C160.884,-57.4521 149.83,-54.8572 139.346,-49.6673 C128.863,-44.4774 120.403,-37.5229 113.968,-28.8039 L109.919,-53.7154 L59.1622,-53.7154 L59.1622,110.7 L121.13,110.7 L121.13,14.1684 C121.13,6.90257 123.517,0.778491 128.292,-4.20381 C133.066,-9.18611 139.294,-11.6773 146.975,-11.6773 C153.618,-11.6773 158.756,-9.5494 162.389,-5.29369 C166.022,-1.03797 167.839,4.61901 167.839,11.6773 L167.839,110.7 L229.806,110.7 L229.806,4.20382 C229.806,-15.7254 225.031,-30.9837 215.482,-41.571 C205.932,-52.1584 191.608,-57.4521 172.51,-57.4521 Z M440.1,-53.7154 L440.1,-103.538 L394.014,-103.538 L380.624,-53.7154 L355.09,-53.7154 L355.09,-11.6773 L378.133,-11.6773 L378.133,70.5307 C378.133,86.5155 383.064,97.8295 392.924,104.473 C402.785,111.116 416.85,114.437 435.118,114.437 C440.931,114.437 447.782,113.918 455.67,112.88 C463.559,111.842 469.994,110.493 474.977,108.832 L474.977,72.399 L457.539,72.399 C450.895,72.399 446.328,70.6864 443.837,67.261 C441.346,63.8357 440.1,58.3863 440.1,50.9129 L440.1,-11.6773 L474.977,-11.6773 L474.977,-53.7154 L440.1,-53.7154 Z M627.767,62.7458 L627.767,-103.85 L606.904,-103.85 C594.033,-95.3384 578.982,-87.813 561.752,-81.2737 C544.521,-74.7345 528.951,-71.0496 515.043,-70.2193 L515.043,-34.0976 L565.8,-34.0976 L565.8,62.7458 L515.043,62.7458 L515.043,110.7 L676.656,110.7 L676.656,62.7458 L627.767,62.7458 Z M876.155,110.7 L876.155,-115.06 L814.188,-115.06 L814.188,-38.4571 C802.355,-51.1205 786.993,-57.4521 768.102,-57.4521 C745.889,-57.4521 728.762,-50.2382 716.722,-35.8103 C704.681,-21.3824 698.661,-0.0518923 698.661,28.1811 C698.661,56.6218 704.681,78.1079 716.722,92.6396 C728.762,107.171 745.889,114.437 768.102,114.437 C790.937,114.437 808.375,105.407 820.416,87.3459 L825.71,110.7 L876.155,110.7 Z M787.408,-11.6773 C796.542,-11.6773 803.393,-8.40762 807.96,-1.86836 C812.527,4.67091 814.811,13.1304 814.811,23.5102 L814.811,33.7862 C814.811,44.166 812.527,52.5736 807.96,59.0091 C803.393,65.4446 796.542,68.6623 787.408,68.6623 C769.555,68.6623 760.628,58.0749 760.628,36.9002 L760.628,20.3963 C760.628,-0.986073 769.555,-11.6773 787.408,-11.6773 Z " fill="#271789" fill-opacity="1.00" />		</g>	</svg>
